<svg width="486" height="459" xmlns="http://www.w3.org/2000/svg" xmlns:xlink="http://www.w3.org/1999/xlink" xml:space="preserve" overflow="hidden"><g transform="translate(-1617 -1168)"><g><path d="M1911.41 1173.03C1941.94 1178.3 1958.37 1184.35 1979.81 1196.69 2001.25 1209.03 2016.99 1225.98 2029.06 1239.35 2041.12 1252.73 2041.12 1260.06 2043.49 1265.49 2045.85 1270.91 2050.96 1286.64 2065.84 1285.58 2080.72 1284.51 2080.5 1287.51 2089.57 1296.21 2098.64 1304.9 2102 1307.1 2102 1310.85 2102 1313.35 2100.39 1316.45 2097.17 1320.15 2072.56 1344.96 2058.2 1359.06 2054.09 1362.45 2048.97 1366.68 2046.2 1365.33 2043.54 1363.54L2043.33 1363.41C2043.23 1363.34 2043.13 1363.27 2043.03 1363.2L2042.73 1362.99C2042.66 1362.95 2042.59 1362.9 2042.53 1362.86L2042.32 1362.72C2042.19 1362.63 2042.05 1362.54 2041.91 1362.45 2041.02 1361.87 2039.46 1360.45 2037.59 1358.59L2037.16 1358.16C2035.76 1356.75 2034.22 1355.14 2032.67 1353.47L2032.19 1352.95C2031.88 1352.62 2031.58 1352.28 2031.27 1351.95L2030.82 1351.45C2027.59 1347.89 2024.62 1344.4 2023.31 1342.54 2021.25 1339.62 2020.84 1336.17 2022.08 1332.19 2024.31 1323.53 2021.32 1316.02 2013.1 1309.66 2004.89 1303.3 1993.79 1305.14 1979.81 1315.17 1939.46 1345.89 1901.28 1380.94 1865.28 1420.32L1865.15 1420.12C1865.23 1420.25 1865.32 1420.39 1865.4 1420.52 1866.45 1422.2 1866.34 1424.35 1865.13 1425.92 1841.76 1456.2 1814.02 1488.99 1781.88 1524.28 1751.43 1557.72 1719.17 1590.41 1685.12 1622.34 1679.68 1627.45 1671.55 1628.46 1665.01 1624.84 1654.89 1619.23 1646.03 1612.59 1638.42 1604.91 1631.13 1597.55 1625.02 1589.35 1620.09 1580.31 1616.48 1573.68 1617.62 1565.47 1622.91 1560.08 1659.19 1523.06 1692.77 1490.66 1723.67 1462.9 1756.05 1433.8 1788.4 1406.62 1820.73 1381.35 1822.29 1380.12 1824.46 1380.01 1826.16 1381.06 1826.53 1381.29 1826.9 1381.53 1827.27 1381.76L1827.04 1381.62C1865.31 1343.11 1922.34 1283.99 1928.81 1272.71 1937.6 1257.38 1945.38 1237.2 1934.27 1221.06 1923.17 1204.92 1895.05 1188.54 1880.24 1184 1865.43 1179.46 1861.35 1179.12 1861.35 1174.64 1861.35 1170.06 1880.89 1167.76 1911.41 1173.03Z" fill="#FFFFFF" fill-rule="evenodd" fill-opacity="1"/></g></g></svg>